<?xml version="1.0" encoding="UTF-8" standalone="no"?>
<!-- Created with Inkscape (http://www.inkscape.org/) -->

<svg
   width="43.006634mm"
   height="5.4365978mm"
   viewBox="0 0 43.006634 5.4365978"
   version="1.1"
   id="svg758"
   inkscape:version="1.1.2 (b8e25be833, 2022-02-05)"
   sodipodi:docname="ajg_logo.svg"
   xmlns:inkscape="http://www.inkscape.org/namespaces/inkscape"
   xmlns:sodipodi="http://sodipodi.sourceforge.net/DTD/sodipodi-0.dtd"
   xmlns="http://www.w3.org/2000/svg"
   xmlns:svg="http://www.w3.org/2000/svg">
  <sodipodi:namedview
     id="namedview760"
     pagecolor="#505050"
     bordercolor="#eeeeee"
     borderopacity="1"
     inkscape:pageshadow="0"
     inkscape:pageopacity="0"
     inkscape:pagecheckerboard="0"
     inkscape:document-units="mm"
     showgrid="false"
     inkscape:zoom="0.60756173"
     inkscape:cx="-423.00229"
     inkscape:cy="144.01829"
     inkscape:window-width="1900"
     inkscape:window-height="960"
     inkscape:window-x="10"
     inkscape:window-y="43"
     inkscape:window-maximized="1"
     inkscape:current-layer="layer1" />
  <defs
     id="defs755">
    <clipPath
       clipPathUnits="userSpaceOnUse"
       id="clipPath69">
      <path
         d="M 0,595.28 H 841.89 V 0 H 0 Z"
         id="path67" />
    </clipPath>
    <clipPath
       clipPathUnits="userSpaceOnUse"
       id="clipPath109">
      <path
         d="M 0,595.28 H 841.89 V 0 H 0 Z"
         id="path107" />
    </clipPath>
  </defs>
  <g
     inkscape:label="Layer 1"
     inkscape:groupmode="layer"
     id="layer1"
     transform="translate(-93.464425,-110.50751)">
    <g
       id="g63"
       transform="matrix(0.06267788,0,0,-0.06267788,89.444579,135.775)">
      <g
         id="g65"
         clip-path="url(#clipPath69)">
        <g
           id="g71"
           transform="translate(256.9644,349.894)">
          <path
             d="m 0,0 -3.948,19.513 c -0.376,1.992 -0.715,4.408 -1.015,7.247 -0.301,2.838 -0.583,6.232 -0.846,10.179 -0.827,-3.008 -1.711,-5.799 -2.65,-8.375 -0.941,-2.575 -1.937,-4.972 -2.989,-7.19 L -21.487,0 Z m -56.396,-31.3 42.748,82.564 H 5.188 L 25.04,-31.3 H 6.711 L 3.215,-13.535 H -28.198 L -37.109,-31.3 Z"
             style="fill:#4f4c4d;fill-opacity:1;fill-rule:nonzero;stroke:none"
             id="path73" />
        </g>
        <g
           id="g75"
           transform="translate(283.978,334.667)">
          <path
             d="m 0,0 16.017,3.102 c 0.075,-2.369 0.507,-4.137 1.297,-5.302 0.79,-1.166 1.974,-1.748 3.553,-1.748 3.195,0 5.508,5.865 6.937,17.596 0.3,2.405 0.526,4.229 0.676,5.47 l 6.261,47.373 H 52.054 L 45.569,17.37 c -0.151,-1.166 -0.377,-2.932 -0.677,-5.301 -1.504,-11.92 -3.573,-19.683 -6.204,-23.292 -1.768,-2.369 -4.08,-4.136 -6.937,-5.301 -2.857,-1.165 -6.335,-1.749 -10.433,-1.749 -6.767,0 -11.975,1.561 -15.622,4.681 C 2.05,-10.472 0.151,-5.941 0,0"
             style="fill:#4f4c4d;fill-opacity:1;fill-rule:nonzero;stroke:none"
             id="path77" />
        </g>
        <g
           id="g79"
           transform="translate(380.3271,362.1318)">
          <path
             d="m 0,0 h 37.616 c 0.075,-0.489 0.122,-1.015 0.141,-1.579 0.019,-0.564 0.029,-1.429 0.029,-2.594 0,-12.37 -3.535,-22.39 -10.603,-30.059 -7.069,-7.67 -16.205,-11.506 -27.409,-11.506 -12.821,0 -23.386,4.089 -31.694,12.267 -8.31,8.177 -12.464,18.563 -12.464,31.159 0,12.482 4.173,22.802 12.52,30.961 8.346,8.159 18.893,12.239 31.638,12.239 6.73,0 12.895,-1.41 18.498,-4.23 5.602,-2.82 10.603,-7.032 15.002,-12.633 l -11.9,-8.798 c -2.971,3.684 -6.091,6.345 -9.362,7.98 -3.271,1.636 -7.049,2.454 -11.335,2.454 -8.159,0 -14.683,-2.538 -19.57,-7.614 -4.888,-5.076 -7.332,-11.863 -7.332,-20.359 0,-8.347 2.454,-15.086 7.36,-20.218 4.907,-5.133 11.308,-7.699 19.203,-7.699 5.789,0 10.49,1.363 14.1,4.089 3.609,2.726 5.414,6.288 5.414,10.687 v 0.903 L 0,-14.55 Z"
             style="fill:#393536;fill-opacity:1;fill-rule:nonzero;stroke:none"
             id="path81" />
        </g>
        <g
           id="g83"
           transform="translate(472.6484,332.1289)">
          <path
             d="m 0,0 c 7.481,0 13.657,2.623 18.526,7.867 4.869,5.245 7.304,11.816 7.304,19.711 0,7.819 -2.464,14.4 -7.389,19.739 C 13.516,52.655 7.368,55.325 0,55.325 c -7.482,0 -13.686,-2.66 -18.61,-7.98 -4.927,-5.321 -7.389,-11.909 -7.389,-19.767 0,-7.972 2.426,-14.56 7.275,-19.767 C -13.873,2.603 -7.633,0 0,0 M 43.989,27.578 C 43.989,21.675 42.89,16.091 40.69,10.828 38.49,5.564 35.322,0.939 31.188,-3.045 26.901,-7.144 22.069,-10.284 16.693,-12.463 11.316,-14.644 5.753,-15.735 0,-15.735 c -5.039,0 -9.974,0.856 -14.804,2.567 -4.832,1.71 -9.259,4.163 -13.281,7.359 -5.188,4.136 -9.165,9.08 -11.929,14.832 -2.762,5.753 -4.144,11.937 -4.144,18.555 0,5.94 1.09,11.514 3.27,16.721 2.181,5.207 5.376,9.842 9.588,13.902 4.135,4.023 8.939,7.143 14.409,9.362 5.471,2.218 11.101,3.328 16.891,3.328 5.753,0 11.345,-1.11 16.778,-3.328 5.433,-2.219 10.236,-5.339 14.41,-9.362 4.172,-4.06 7.349,-8.704 9.531,-13.93 2.179,-5.226 3.27,-10.791 3.27,-16.693"
             style="fill:#393536;fill-opacity:1;fill-rule:nonzero;stroke:none"
             id="path85" />
        </g>
        <g
           id="g87"
           transform="translate(524.3643,318.5938)">
          <path
             d="M 0,0 12.576,82.564 H 31.074 L 46.978,33.951 c 0.338,-1.015 0.705,-2.501 1.099,-4.455 0.396,-1.956 0.762,-4.193 1.101,-6.712 0.3,2.556 0.638,4.841 1.014,6.852 0.375,2.011 0.734,3.487 1.072,4.427 L 67.45,82.564 H 85.666 L 98.299,0 h -16.75 l -6.034,49.798 c -0.452,3.684 -0.753,6.466 -0.903,8.347 -0.151,1.879 -0.225,3.627 -0.225,5.245 0,0.864 0.009,1.513 0.028,1.945 0.019,0.432 0.046,0.818 0.084,1.157 -0.563,-3.235 -1.1,-6.026 -1.607,-8.375 -0.507,-2.35 -0.968,-4.127 -1.381,-5.33 L 54.027,0 H 44.102 L 26.9,52.787 c -0.15,0.488 -0.479,1.842 -0.986,4.061 -0.508,2.217 -1.213,5.451 -2.115,9.7 v -2.425 c 0,-3.835 -0.338,-8.536 -1.015,-14.099 L 22.728,49.798 16.749,0 Z"
             style="fill:#393536;fill-opacity:1;fill-rule:nonzero;stroke:none"
             id="path89" />
        </g>
        <g
           id="g91"
           transform="translate(634.1113,318.5938)">
          <path
             d="M 0,0 V 82.564 H 48.614 V 67.676 H 17.652 V 50.701 H 48.614 V 35.699 H 17.652 V 15.001 H 48.614 V 0 Z"
             style="fill:#393536;fill-opacity:1;fill-rule:nonzero;stroke:none"
             id="path93" />
        </g>
        <g
           id="g95"
           transform="translate(694.7383,329.0835)">
          <path
             d="m 0,0 9.813,11.11 c 1.241,-3.045 3.233,-5.442 5.978,-7.191 2.743,-1.748 5.827,-2.622 9.249,-2.622 4.135,0 7.406,0.977 9.813,2.933 2.405,1.954 3.609,4.586 3.609,7.895 0,3.91 -4.004,7.801 -12.013,11.674 -2.594,1.241 -4.643,2.256 -6.146,3.046 -7.219,3.759 -12.22,7.434 -15.002,11.025 -2.783,3.59 -4.173,7.868 -4.173,12.831 0,6.804 2.697,12.397 8.093,16.778 5.394,4.379 12.397,6.57 21.008,6.57 4.999,0 9.313,-0.875 12.942,-2.623 3.628,-1.748 6.833,-4.483 9.616,-8.205 L 42.354,53.238 c -1.242,2.406 -2.886,4.202 -4.935,5.386 -2.05,1.185 -4.522,1.777 -7.416,1.777 -3.497,0 -6.316,-0.875 -8.46,-2.623 -2.143,-1.748 -3.215,-4.014 -3.215,-6.796 0,-4.361 4.248,-8.346 12.746,-11.956 1.692,-0.714 2.989,-1.278 3.892,-1.692 6.993,-3.196 12.172,-6.805 15.537,-10.828 3.364,-4.023 5.047,-8.61 5.047,-13.76 0,-7.746 -2.642,-13.921 -7.924,-18.527 -5.282,-4.606 -12.379,-6.908 -21.289,-6.908 -6.316,0 -11.731,1.091 -16.242,3.271 C 5.583,-7.238 2.218,-4.099 0,0"
             style="fill:#393536;fill-opacity:1;fill-rule:nonzero;stroke:none"
             id="path97" />
        </g>
      </g>
    </g>
    <g
       id="g103"
       transform="matrix(0.06267788,0,0,-0.06267788,89.444579,135.775)">
      <g
         id="g105"
         clip-path="url(#clipPath109)">
        <path
           d="m 174.906,380.75 h -28.347 v 14.173 h 28.347 z"
           style="fill:#2e3192;fill-opacity:1;fill-rule:nonzero;stroke:none"
           id="path111" />
        <path
           d="m 137.071,380.75 h -14.173 v 14.173 h 14.173 z"
           style="fill:#2e3192;fill-opacity:1;fill-rule:nonzero;stroke:none"
           id="path113" />
        <path
           d="M 116.143,355.126 H 87.796 v 14.173 h 28.347 z"
           style="fill:#2e3192;fill-opacity:1;fill-rule:nonzero;stroke:none"
           id="path115" />
        <path
           d="M 156.457,355.126 H 128.11 v 14.173 h 28.347 z"
           style="fill:#2e3192;fill-opacity:1;fill-rule:nonzero;stroke:none"
           id="path117" />
        <path
           d="m 196.771,355.126 h -28.347 v 14.173 h 28.347 z"
           style="fill:#2e3192;fill-opacity:1;fill-rule:nonzero;stroke:none"
           id="path119" />
        <path
           d="M 78.308,355.126 H 64.135 v 14.173 h 14.173 z"
           style="fill:#2e3192;fill-opacity:1;fill-rule:nonzero;stroke:none"
           id="path121" />
        <path
           d="m 121.532,343.676 h 28.347 v -14.173 h -28.347 z"
           style="fill:#2e3192;fill-opacity:1;fill-rule:nonzero;stroke:none"
           id="path123" />
        <path
           d="m 81.217,343.676 h 28.347 V 329.503 H 81.217 Z"
           style="fill:#2e3192;fill-opacity:1;fill-rule:nonzero;stroke:none"
           id="path125" />
        <path
           d="M 159.367,343.676 H 173.54 V 329.503 H 159.367 Z"
           style="fill:#2e3192;fill-opacity:1;fill-rule:nonzero;stroke:none"
           id="path127" />
      </g>
    </g>
  </g>
</svg>
