<?xml version="1.0" encoding="UTF-8" standalone="no"?>
<svg
   width="375"
   height="779"
   viewBox="0 0 375 779"
   fill="none"
   version="1.1"
   id="svg71"
   xmlns="http://www.w3.org/2000/svg"
   xmlns:svg="http://www.w3.org/2000/svg">
  <defs
     id="defs75" />
  <path
     d="M0 779H375V0H80C35.8172 0 0 35.8172 0 80V779Z"
     fill="#6070FF"
     id="path59" />
  <g
     id="g162"
     transform="translate(154,46)">
    <rect
       x="157"
       y="29.399401"
       width="74.701202"
       height="17.2106"
       transform="rotate(-23.1765,157,29.3994)"
       fill="#7f8cff"
       id="rect61" />
    <path
       d="m 259.207,50.4103 c -3.469,-6.088 -8.338,-11.2827 -14.214,-15.1637 -5.876,-3.8809 -12.593,-6.3389 -19.609,-7.175 -7.015,-0.836 -14.131,-0.0266 -20.771,2.3627 -6.64,2.3892 -12.618,6.2913 -17.45,11.3901 -4.831,5.0989 -8.381,11.2512 -10.36,17.9589 -1.98,6.7077 -2.335,13.7822 -1.036,20.6506 1.299,6.8684 4.216,13.3378 8.514,18.8843 4.298,5.5468 9.856,10.0138 16.224,13.0408 l 8.389,-17.2579 c -3.628,-1.7245 -6.795,-4.2697 -9.243,-7.4295 -2.449,-3.1599 -4.11,-6.8455 -4.85,-10.7584 -0.741,-3.9129 -0.538,-7.9433 0.589,-11.7646 1.128,-3.8214 3.15,-7.3264 5.903,-10.2312 2.753,-2.9048 6.158,-5.1278 9.941,-6.4889 3.783,-1.3612 7.837,-1.8223 11.833,-1.346 3.997,0.4763 7.824,1.8766 11.172,4.0876 3.347,2.2109 6.121,5.1704 8.097,8.6387 z"
       fill="#ffffff"
       id="path63" />
    <circle
       cx="10.5"
       cy="44.5"
       r="10.5"
       fill="#7f8cff"
       id="circle65" />
    <rect
       width="76.175003"
       height="13.6273"
       transform="matrix(0.801365,0.598176,0.598176,-0.801365,105.805,653.889)"
       fill="#7f8cff"
       id="rect67"
       x="0"
       y="0" />
    <circle
       cx="122.228"
       cy="687.21899"
       r="15.5552"
       transform="rotate(48.9435,122.228,687.219)"
       fill="#ffffff"
       id="circle69" />
  </g>
</svg>
