<?xml version="1.0" encoding="UTF-8" standalone="no"?>
<!-- Created with Inkscape (http://www.inkscape.org/) -->

<svg
   width="20"
   height="20"
   viewBox="0 0 5.2916665 5.2916668"
   version="1.1"
   id="svg12"
   inkscape:version="1.1.2 (b8e25be833, 2022-02-05)"
   sodipodi:docname="social_logo_5.svg"
   xmlns:inkscape="http://www.inkscape.org/namespaces/inkscape"
   xmlns:sodipodi="http://sodipodi.sourceforge.net/DTD/sodipodi-0.dtd"
   xmlns="http://www.w3.org/2000/svg"
   xmlns:svg="http://www.w3.org/2000/svg">
  <sodipodi:namedview
     id="namedview14"
     pagecolor="#505050"
     bordercolor="#eeeeee"
     borderopacity="1"
     inkscape:pageshadow="0"
     inkscape:pageopacity="0"
     inkscape:pagecheckerboard="0"
     inkscape:document-units="mm"
     showgrid="false"
     units="px"
     inkscape:zoom="21.02682"
     inkscape:cx="12.317602"
     inkscape:cy="11.628006"
     inkscape:window-width="1900"
     inkscape:window-height="960"
     inkscape:window-x="10"
     inkscape:window-y="43"
     inkscape:window-maximized="1"
     inkscape:current-layer="layer1" />
  <defs
     id="defs9" />
  <g
     inkscape:label="Layer 1"
     inkscape:groupmode="layer"
     id="layer1">
    <path
       d="m 2.478772,5.2983805 c 1.2426659,0 2.0159107,-0.91567 2.0159107,-2.0970346 0,-0.4453996 -0.072549,-0.8475583 -0.5781146,-0.968383 0.1230313,-0.3369045 0.4779963,-1.31145227 0.4779963,-1.6236606 0,-0.27494706 -0.1653646,-0.50535417 -0.4601369,-0.50535417 -0.4698735,0 -0.8909923,1.36106167 -1.0228421,1.68561547 C 2.8094985,1.494995 2.3314864,0.00671376 1.9101375,0.00671376 c -0.327422,0 -0.4810999,0.23658169 -0.4810999,0.53423873 0,0.36490275 0.360053,1.31056861 0.4905799,1.67437071 -0.066146,-0.023813 -0.137803,-0.044537 -0.2107857,-0.044537 -0.2465017,0 -0.5086615,0.3007413 -0.5086615,0.5437266 0,0.091943 0.051594,0.2211388 0.084228,0.3069167 C 0.89590084,3.1248284 0.7464112,3.37904 0.7464112,3.7624742 0.74530876,4.5085992 1.465857,5.2983805 2.478772,5.2983805 Z M 3.5437173,1.1230359 c 0.042333,-0.12722233 0.22225,-0.6645461 0.3907102,-0.6645461 0.09062,0 0.1148556,0.0919427 0.1148556,0.16536458 0,0.19733419 -0.4063471,1.28785942 -0.4960937,1.52951132 L 3.1951287,2.0914109 Z M 1.7597642,0.5061148 v -2.196e-4 c 0,-0.12303125 0.1527995,-0.47228205 0.4874974,0.48683333 L 2.6117225,2.0294534 C 2.4474612,2.0160046 2.320022,1.9983648 2.2391019,2.0440055 2.1242304,1.7463492 1.7597642,0.80685874 1.7597642,0.5061148 Z m -0.024252,2.0222978 2.196e-4,2.222e-4 c 0.3084591,0 0.7066597,0.9776434 0.7066597,1.109935 0,0.052679 -0.051596,0.1177396 -0.1115668,0.1177396 -0.2202657,0 -0.8100669,-0.7948612 -0.8100669,-1.0098352 8.84e-4,-0.079587 0.1336149,-0.2180616 0.2147544,-0.2180616 z M 1.3809707,3.3376063 c 0.1199436,0 0.5717197,0.6233054 0.5717197,0.7555971 0,0.050721 -0.08114,0.085778 -0.1230313,0.085778 -0.169553,0 -0.2359211,-0.160311 -0.5379853,-0.531151 -0.31287027,0.3069166 0.2158551,0.8980222 0.6140531,0.8980222 0.2747274,0 0.4537604,-0.2500312 0.4001822,-0.4341283 0.039026,0 0.087312,0.0031 0.1232509,-0.00616 0.011687,0.2800086 0.095911,0.6138334 0.439211,0.6376459 0,-0.00926 0.021167,-0.073422 0.021167,-0.076517 0,-0.1799167 -0.1115668,-0.336894 -0.1115668,-0.5199063 0,-0.2925762 0.2284227,-0.5756804 0.4601554,-0.741045 C 3.322351,3.3437711 3.4246548,3.3054065 3.5234237,3.2703492 3.6257381,3.2321963 3.7342173,3.1876669 3.8118196,3.1111494 3.8001515,2.9953942 3.751865,2.8931063 3.6338873,2.8931063 c -0.2916926,0 -1.2699894,0.041434 -1.2699894,-0.4103344 0,-0.069231 0.0011,-0.1353767 0.1834435,-0.1353767 0.3402119,0 1.2038621,0.082682 1.4565392,0.3007413 0.1905,0.1664679 0.2559844,1.1699002 -0.3265487,1.8055617 l -6.615e-4,2.116e-4 C 3.3701956,4.784639 2.9783927,4.9561948 2.521325,4.9561948 1.895805,4.9561948 1.4016955,4.6192744 1.1637901,4.043594 0.9836544,3.5951253 1.2039195,3.3376063 1.3809707,3.3376063 Z M 2.6379612,3.1514984 c 0.1025261,0.0322 0.2076979,0.041672 0.3130921,0.062177 C 2.8730012,3.2694761 2.8037677,3.337818 2.73718,3.4110282 2.7076366,3.3232659 2.6716956,3.237488 2.6379612,3.1514984 Z"
       fill="#505f79"
       id="path513"
       style="stroke-width:0.264583" />
  </g>
</svg>
