<?xml version="1.0" encoding="UTF-8" standalone="no"?>
<!-- Created with Inkscape (http://www.inkscape.org/) -->

<svg
   width="20"
   height="20"
   viewBox="0 0 5.2916665 5.2916668"
   version="1.1"
   id="svg12"
   inkscape:version="1.1.2 (b8e25be833, 2022-02-05)"
   sodipodi:docname="social_logo_1.svg"
   xmlns:inkscape="http://www.inkscape.org/namespaces/inkscape"
   xmlns:sodipodi="http://sodipodi.sourceforge.net/DTD/sodipodi-0.dtd"
   xmlns="http://www.w3.org/2000/svg"
   xmlns:svg="http://www.w3.org/2000/svg">
  <sodipodi:namedview
     id="namedview14"
     pagecolor="#505050"
     bordercolor="#eeeeee"
     borderopacity="1"
     inkscape:pageshadow="0"
     inkscape:pageopacity="0"
     inkscape:pagecheckerboard="0"
     inkscape:document-units="mm"
     showgrid="false"
     units="px"
     inkscape:zoom="21.02682"
     inkscape:cx="12.36516"
     inkscape:cy="11.628006"
     inkscape:window-width="1900"
     inkscape:window-height="960"
     inkscape:window-x="10"
     inkscape:window-y="43"
     inkscape:window-maximized="1"
     inkscape:current-layer="layer1" />
  <defs
     id="defs9" />
  <g
     inkscape:label="Layer 1"
     inkscape:groupmode="layer"
     id="layer1">
    <path
       d="M 5.2364988,0.1083239 C 5.1482867,0.00284248 4.9983738,-0.02352776 4.8837034,0.05558318 L 4.3721844,0.4071885 C 4.1340594,0.15227463 3.7989117,0.01163261 3.4373321,0.01163261 c -0.714375,0 -1.3052901,0.58014775 -1.3052901,1.30093899 0,0.1054814 0.00882,0.2021707 0.035277,0.2988627 C 1.5499587,1.4795818 1.179542,1.0312877 1.0384291,0.22259559 1.020792,0.11711415 0.941417,0.03800294 0.83558368,0.01163261 0.73856888,-0.01473777 0.63273558,0.02921285 0.57100035,0.1083239 0.55336055,0.1259041 -0.90184777,2.1476336 1.2060003,3.861697 1.0031522,4.2924122 0.39461053,4.6616118 0.15648583,4.7846695 c -0.1146527,0.052732 -0.1675695,0.1757892 -0.1411111,0.2988734 0.026458,0.1230577 0.1322918,0.2021681 0.2557638,0.2021681 h 0.45861182 c 2.68112345,0 3.89820675,-1.3273088 3.92466515,-4.29837594 L 5.2100405,0.4599279 C 5.3158738,0.372028 5.3246844,0.21380534 5.2364988,0.1083239 Z"
       fill="#505f79"
       id="path16"
       style="stroke-width:0.264583" />
  </g>
</svg>
