<?xml version="1.0" encoding="UTF-8" standalone="no"?>
<!-- Created with Inkscape (http://www.inkscape.org/) -->

<svg
   width="20"
   height="20"
   viewBox="0 0 5.2916665 5.2916668"
   version="1.1"
   id="svg12"
   inkscape:version="1.1.2 (b8e25be833, 2022-02-05)"
   sodipodi:docname="social_logo_3.svg"
   xmlns:inkscape="http://www.inkscape.org/namespaces/inkscape"
   xmlns:sodipodi="http://sodipodi.sourceforge.net/DTD/sodipodi-0.dtd"
   xmlns="http://www.w3.org/2000/svg"
   xmlns:svg="http://www.w3.org/2000/svg">
  <sodipodi:namedview
     id="namedview14"
     pagecolor="#505050"
     bordercolor="#eeeeee"
     borderopacity="1"
     inkscape:pageshadow="0"
     inkscape:pageopacity="0"
     inkscape:pagecheckerboard="0"
     inkscape:document-units="mm"
     showgrid="false"
     units="px"
     inkscape:zoom="21.02682"
     inkscape:cx="12.317602"
     inkscape:cy="11.628006"
     inkscape:window-width="1900"
     inkscape:window-height="960"
     inkscape:window-x="10"
     inkscape:window-y="43"
     inkscape:window-maximized="1"
     inkscape:current-layer="layer1" />
  <defs
     id="defs9" />
  <g
     inkscape:label="Layer 1"
     inkscape:groupmode="layer"
     id="layer1">
    <path
       d="M 4.8596094,1.0397046 5.2818314,0.63152241 V 0.54217681 H 3.8191352 L 2.7766769,3.1641685 1.5906742,0.54217681 H 0.05697188 v 0.089346 l 0.4932283,0.60001839 c 0.048064,0.044339 0.0732,0.1091776 0.066807,0.1744583 v 2.357956 c 0.015214,0.084905 -0.012129,0.1722438 -0.071218,0.2339711 l -0.555625,0.6804289 v 0.088239 H 1.5655383 v -0.08935 L 1.0099137,3.9979262 C 0.94972108,3.9359608 0.92127838,3.8501828 0.93340418,3.7639551 V 1.7243907 L 2.316294,4.7677049 H 2.4770283 L 3.6661002,1.7243907 v 2.4243744 c 0,0.063923 0,0.077073 -0.041434,0.1189567 L 3.1969146,4.6859487 v 0.089561 h 2.0752068 v -0.08935 L 4.8598204,4.2781993 c -0.03617,-0.027622 -0.0549,-0.073977 -0.04717,-0.1189831 V 1.1586851 c -0.0077,-0.04523 0.01079,-0.091575 0.04696,-0.1189805 z"
       fill="#505f79"
       id="path283"
       style="stroke-width:0.264583" />
  </g>
</svg>
